<?xml version="1.0" encoding="utf-8"?>
<!-- Generator: Adobe Illustrator 16.0.3, SVG Export Plug-In . SVG Version: 6.00 Build 0)  -->
<!DOCTYPE svg PUBLIC "-//W3C//DTD SVG 1.1//EN" "http://www.w3.org/Graphics/SVG/1.1/DTD/svg11.dtd">
<svg version="1.1" xmlns="http://www.w3.org/2000/svg" xmlns:xlink="http://www.w3.org/1999/xlink" x="0px" y="0px" width="128px"
	 height="128px" viewBox="0 0 128 128" enable-background="new 0 0 128 128" xml:space="preserve">
<g id="Ebene_5" display="none">
	<g display="inline">
		<path fill="#404547" d="M82.457,64.014l29.59,29.715c1.305,1.309,1.953,2.854,1.953,4.649c0,1.786-0.648,3.307-1.953,4.54
			l-9.18,9.189c-1.234,1.308-2.771,1.955-4.59,1.955c-1.82,0-3.357-0.647-4.59-1.955L64,82.486l-29.688,29.621
			c-1.239,1.308-2.767,1.955-4.59,1.955c-1.825,0-3.353-0.647-4.59-1.955l-9.18-9.189c-1.302-1.233-1.953-2.754-1.953-4.54
			c0-1.796,0.651-3.341,1.953-4.649l29.59-29.715l-29.59-29.617C14.651,33.091,14,31.545,14,29.753c0-1.794,0.651-3.34,1.953-4.644
			l9.18-9.189c1.237-1.239,2.765-1.857,4.59-1.857c1.823,0,3.351,0.619,4.59,1.857L64,45.635L93.688,15.92
			c1.232-1.239,2.77-1.857,4.59-1.857c1.818,0,3.355,0.619,4.59,1.857l9.18,9.189c1.305,1.303,1.953,2.849,1.953,4.644
			c0,1.792-0.648,3.338-1.953,4.644L82.457,64.014z"/>
	</g>
</g>
<g id="Ebene_4">
	<g>
		<path fill="#426080" d="M55.516,10.331c-16.247,0-24.188,2.921-26.971,4.174c-2.782,1.249-4.169,2.503-4.726,5.141
			c-0.458,2.187-3.588,17.65-4.652,22.917C13.493,44.927,9.5,50.531,9.5,57.066c0,8.682,7.035,15.715,15.711,15.715
			c8.675,0,15.713-7.033,15.713-15.715c0-5.667-3.009-10.637-7.51-13.398V14.505c0,0,5.141-1.778,18.212-1.778
			c19.66,0,58.944,13.923,58.944,51.223c0,35.646-38.511,49.96-60.892,49.96c-16.681,0-23.076-3.613-23.076-3.613l-2.783,1.534
			c0,0,10.707,5.838,29.888,5.838c30.719,0,64.792-19.936,64.792-53.719C118.5,29.521,82.069,10.331,55.516,10.331z"/>
		<path fill="#426080" d="M58.482,49.376c0.395,2.486-2.742,3.846-2.742,5.714c0,1.6,6.802,11.247,8.7,14.284
			c1.79,2.88,0.608,4.109-2.883,4.954c-3.492,0.846-3.075,2.486-3.075,3.823s1.34,2.517,1.34,3.443c0,0.914-2.317,2.043-2.317,2.868
			c0,0.824,1.676,1.67,1.676,2.334c0,0.665-2.132,1.539-2.273,3.204c-0.149,1.806,2.915,5.346-0.283,9.236
			c-3.2,3.888-17.374,1.047-17.374,1.047s12.375-11.816,12.375-29.746c0-17.94-13.902-26.976-13.902-26.976s0-20.305,0-24.19
			C45.392,19.373,56.203,35.098,58.482,49.376z"/>
		<path fill="#CDD7E5" d="M60.533,100.582c0,0,2.124-3.035,1.592-5.155c-0.532-2.124-1.265-4.68-0.755-5.507
			c0.517-0.82,1.965-0.915,1.965-2.698c0-1.782-1.114-1.836-1.114-2.218c0-0.394,1.788-1.591,1.788-3.088s-1.258-2.176-1.258-3.768
			c0-1.593,1.645-1.689,2.999-2.071c1.348-0.394,4.052-1.265,4.052-3.957c0-2.708-9.606-14.769-9.606-16.266
			c0-1.497,2.91-2.82,2.459-6.322c-0.72-5.643-6.783-24.252-19.296-31.557c21.759-2.792,58.59,11.992,58.59,41.308
			C101.947,88.589,71.701,99.104,60.533,100.582z"/>
		<path fill="#819CBD" d="M62.703,85.51c-0.152-0.166-0.471-0.308-0.471-0.451c0-0.143,0.047-0.248,0.216-0.436
			c7.182-3.208,13.397-9.818,13.397-18.271c0-8.45-7.128-15.787-13.508-18.591c-1.148-5.329-4.877-15.794-11.55-23.472
			c10.898-1.214,38.494,9.987,38.494,29.945C89.281,76.023,67.284,84.321,62.703,85.51z"/>
		<g>
			<path fill="#1CA037" d="M33.37,58.577c0,5.886-4.776,10.67-10.667,10.67c-5.888,0-10.67-4.784-10.67-10.67
				c0-5.891,4.783-10.673,10.67-10.673C28.594,47.903,33.37,52.686,33.37,58.577z"/>
		</g>
	</g>
</g>
</svg>
